<?xml version="1.0" encoding="UTF-8"?> <svg xmlns="http://www.w3.org/2000/svg" width="215" height="68" viewBox="0 0 215 68" fill="none"><path d="M11.0073 0.183838H19.3737L30.381 31.0082H23.9964L21.6638 24.4038H8.71719L6.38463 31.0082H0L11.0073 0.183838ZM19.8132 19.118L15.63 6.78823H14.751L10.5678 19.118H19.8132Z" fill="#FFF5EB"></path><path d="M31.6996 0.183838H37.2051V10.9714H37.4249C37.4249 10.9714 39.4066 8.11065 43.8095 8.11065C49.5349 8.11065 54.1576 12.7333 54.1576 19.7811C54.1576 26.8289 49.5349 31.4516 43.8095 31.4516C39.1868 31.4516 37.2051 28.5908 37.2051 28.5908H36.9854L36.5459 31.0121H31.7034V0.183838H31.6996ZM48.652 19.7773C48.652 15.5941 46.2308 13.1729 42.9266 13.1729C39.6225 13.1729 37.2013 15.5941 37.2013 19.7773C37.2013 23.9604 39.6225 26.3817 42.9266 26.3817C46.2308 26.3817 48.652 23.9604 48.652 19.7773Z" fill="#FFF5EB"></path><path d="M55.2564 8.55018H60.762V21.5392C60.762 24.4 62.7437 26.3817 65.6044 26.3817C68.4652 26.3817 70.4469 24.4 70.4469 21.5392V8.55018H75.9525V31.0082H70.8903L70.4507 28.8067H70.231C70.231 28.8067 68.2493 31.4477 64.0661 31.4477C59.0039 31.4477 55.2603 27.7041 55.2603 21.9787V8.55018H55.2564Z" fill="#FFF5EB"></path><path d="M83.2162 8.55018L83.6557 10.7516H83.8754C83.8754 10.7516 85.8571 8.11065 90.0403 8.11065C95.1025 8.11065 98.8462 11.8543 98.8462 17.5797V31.0082H93.3406V18.0192C93.3406 15.1584 91.3589 13.1767 88.4981 13.1767C85.6374 13.1767 83.6557 15.1584 83.6557 18.0192V31.0082H78.1501V8.55018H83.2162Z" fill="#FFF5EB"></path><path d="M117.564 28.587C117.564 28.587 115.583 31.4477 110.96 31.4477C105.235 31.4477 100.612 26.825 100.612 19.7773C100.612 12.7295 105.235 8.1068 110.96 8.1068C115.363 8.1068 117.345 10.9675 117.345 10.9675H117.564V0.183838H123.07V31.0082H118.228L117.788 28.587H117.564ZM117.564 19.7773C117.564 15.5941 115.143 13.1729 111.839 13.1729C108.535 13.1729 106.114 15.5941 106.114 19.7773C106.114 23.9604 108.535 26.3817 111.839 26.3817C115.143 26.3817 117.564 23.9604 117.564 19.7773Z" fill="#FFF5EB"></path><path d="M139.14 28.8067H138.92C138.92 28.8067 136.938 31.4477 132.535 31.4477C127.473 31.4477 124.389 28.3634 124.389 24.6236C124.389 20.2206 127.473 17.1363 133.634 17.1363H138.696V16.6968C138.696 14.2755 137.154 12.5136 134.733 12.5136C132.312 12.5136 130.989 14.0558 130.769 15.3743H125.264C125.703 11.6307 128.788 8.1068 134.733 8.1068C140.678 8.1068 144.202 11.8504 144.202 16.6929V31.0044H139.579L139.14 28.8029V28.8067ZM134.077 21.3194C131.217 21.3194 129.894 22.4221 129.894 24.1802C129.894 25.9383 131.217 27.0409 133.418 27.0409C136.722 27.0409 138.704 25.0592 138.704 21.9787V21.3194H134.077Z" fill="#FFF5EB"></path><path d="M151.246 8.55018L151.685 10.7516H151.905C151.905 10.7516 153.887 8.11065 158.07 8.11065C163.132 8.11065 166.876 11.8543 166.876 17.5797V31.0082H161.37V18.0192C161.37 15.1584 159.388 13.1767 156.528 13.1767C153.667 13.1767 151.685 15.1584 151.685 18.0192V31.0082H146.18V8.55018H151.246Z" fill="#FFF5EB"></path><path d="M190.656 22.6419C189.997 26.1658 187.132 31.4477 180.088 31.4477C173.484 31.4477 168.638 26.6053 168.638 19.7773C168.638 12.9493 173.48 8.1068 180.088 8.1068C187.132 8.1068 189.997 13.3926 190.656 16.6929H185.151C184.711 15.3705 183.389 13.169 180.088 13.169C176.788 13.169 174.143 15.81 174.143 19.7734C174.143 23.7368 176.784 26.3778 180.088 26.3778C183.392 26.3778 184.711 24.1763 185.151 22.6342H190.656V22.6419Z" fill="#FFF5EB"></path><path d="M213.993 24.4038C213.554 26.1658 210.689 31.4477 203.645 31.4477C197.041 31.4477 192.194 26.6053 192.194 19.7773C192.194 12.9493 197.037 8.1068 203.645 8.1068C209.81 8.1068 214.652 12.9493 214.652 19.3339C214.652 20.6563 214.433 21.5354 214.433 21.5354H197.7C198.14 24.6197 200.561 26.8212 203.645 26.8212C206.286 26.8212 207.828 25.279 208.268 24.4H213.993V24.4038ZM209.151 17.7956C208.711 14.9348 206.73 12.7333 203.645 12.7333C200.341 12.7333 198.359 14.9348 197.7 17.7956H209.151Z" fill="#FFF5EB"></path><path d="M3.30026 36.5523H23.9964V41.8382H9.02562V49.3255H23.1173V54.6113H9.02562V62.0986H23.9964V67.3844H3.30026V36.5523Z" fill="#FFF5EB"></path><path d="M28.619 36.5523H34.1246V67.3767H28.619V36.5523Z" fill="#FFF5EB"></path><path d="M59.8829 60.7723C59.4434 62.5343 56.5788 67.8162 49.5349 67.8162C42.9305 67.8162 38.0842 62.9738 38.0842 56.1458C38.0842 49.3178 42.9266 44.4753 49.5349 44.4753C55.6998 44.4753 60.5422 49.3178 60.5422 55.7024C60.5422 57.0248 60.3225 57.9039 60.3225 57.9039H43.5898C44.0293 60.9844 46.4505 63.1897 49.5349 63.1897C52.1759 63.1897 53.7181 61.6475 54.1576 60.7685H59.8829V60.7723ZM55.0405 54.1679C54.601 51.3072 52.6193 49.1057 49.5349 49.1057C46.2308 49.1057 44.2491 51.3072 43.5898 54.1679H55.0405Z" fill="#FFF5EB"></path><path d="M85.2017 59.0104C84.5424 62.5343 81.6778 67.8162 74.6339 67.8162C68.0295 67.8162 63.1832 62.9738 63.1832 56.1458C63.1832 49.3178 68.0257 44.4753 74.6339 44.4753C81.6778 44.4753 84.5424 49.7611 85.2017 53.0614H79.6961C79.2566 51.739 77.9342 49.5375 74.6339 49.5375C71.3336 49.5375 68.6888 52.1785 68.6888 56.1419C68.6888 60.1053 71.3298 62.7463 74.6339 62.7463C77.938 62.7463 79.2566 60.5448 79.6961 59.0027H85.2017V59.0104Z" fill="#FFF5EB"></path><path d="M90.4837 50.2045H86.9598V44.9187H90.4837V38.5341H95.9893V44.9187H101.051V50.2045H95.9893V60.9921C95.9893 62.0947 96.4288 62.5343 97.5315 62.5343H101.055V67.3767H96.2129C92.4692 67.3767 90.4875 65.395 90.4875 62.0909V50.2007L90.4837 50.2045Z" fill="#FFF5EB"></path><path d="M124.832 60.7723C124.392 62.5343 121.528 67.8162 114.484 67.8162C107.879 67.8162 103.033 62.9738 103.033 56.1458C103.033 49.3178 107.876 44.4753 114.484 44.4753C120.649 44.4753 125.491 49.3178 125.491 55.7024C125.491 57.0248 125.271 57.9039 125.271 57.9039H108.539C108.978 60.9844 111.4 63.1897 114.484 63.1897C117.125 63.1897 118.667 61.6475 119.107 60.7685H124.832V60.7723ZM119.986 54.1679C119.546 51.3072 117.564 49.1057 114.48 49.1057C111.176 49.1057 109.194 51.3072 108.535 54.1679H119.986Z" fill="#FFF5EB"></path><path d="M145.304 64.9555H145.085C145.085 64.9555 143.103 67.8162 138.48 67.8162C132.755 67.8162 128.132 63.1935 128.132 56.1458C128.132 49.098 132.755 44.4753 138.48 44.4753C142.883 44.4753 144.865 47.3361 144.865 47.3361H145.085V36.5485H150.59V67.3729H145.748L145.308 64.9516L145.304 64.9555ZM145.085 56.1496C145.085 51.9665 142.663 49.5452 139.359 49.5452C136.055 49.5452 133.634 51.9665 133.634 56.1496C133.634 60.3328 136.055 62.754 139.359 62.754C142.663 62.754 145.085 60.3328 145.085 56.1496Z" fill="#FFF5EB"></path></svg> 